<svg xmlns="http://www.w3.org/2000/svg" viewBox="0 0 32 32">
  <defs>
    <linearGradient id="btcGrad" x1="0%" y1="0%" x2="100%" y2="100%">
      <stop offset="0%" style="stop-color:#f7931a"/>
      <stop offset="100%" style="stop-color:#ffb347"/>
    </linearGradient>
  </defs>
  <circle cx="16" cy="16" r="15" fill="url(#btcGrad)"/>
  <path d="M21.5 14.5c.3-2-1.2-3.1-3.3-3.8l.7-2.7-1.6-.4-.7 2.6c-.4-.1-.8-.2-1.3-.3l.7-2.6-1.6-.4-.7 2.7c-.3-.1-.7-.2-1-.3v0l-2.2-.5-.4 1.7s1.2.3 1.2.3c.7.2.8.6.8 1l-.8 3.2c0 0 .1 0 .2.1-.1 0-.1 0-.2 0l-1.1 4.5c-.1.2-.3.5-.8.4 0 0-1.2-.3-1.2-.3l-.8 1.8 2.1.5c.4.1.8.2 1.2.3l-.7 2.7 1.6.4.7-2.7c.4.1.9.2 1.3.3l-.7 2.7 1.6.4.7-2.7c2.8.5 4.9.3 5.8-2.2.7-2-.1-3.2-1.5-4 1.1-.3 1.9-1 2.1-2.4zm-3.8 5.3c-.5 2-3.9.9-5 .7l.9-3.6c1.1.3 4.6.8 4.1 2.9zm.5-5.4c-.5 1.8-3.3.9-4.2.7l.8-3.2c.9.2 3.9.7 3.4 2.5z" fill="#0a0a0f"/>
</svg>
